<svg width="12" height="12" viewBox="0 0 12 12" fill="none" xmlns="http://www.w3.org/2000/svg">
<path d="M1.58909 0.410704C1.26366 0.0852668 0.736019 0.0852667 0.410582 0.410704C0.0851448 0.73614 0.0851446 1.26378 0.410582 1.58921L4.82134 5.99997L0.410606 10.4107C0.0851688 10.7361 0.0851688 11.2638 0.410606 11.5892C0.736043 11.9147 1.26368 11.9147 1.58912 11.5892L5.99985 7.17848L10.4106 11.5892C10.736 11.9147 11.2637 11.9147 11.5891 11.5892C11.9145 11.2638 11.9145 10.7361 11.5891 10.4107L7.17836 5.99997L11.5891 1.58922C11.9146 1.26378 11.9146 0.736142 11.5891 0.410705C11.2637 0.0852678 10.736 0.0852681 10.4106 0.410705L5.99985 4.82146L1.58909 0.410704Z" fill="#33383F"/>
</svg>
